{"title":"WWE.Monday.Night.Raw.2011.10.24.1080p.H.264.HD.MM.By.Snaw90","uid":6771583,"size":8125456221,"categoryP":"video","categoryS":"hd___tv_shows","magnet":"?xt=urn:btih:1178355f4ce36dd18ab75f5c7388e68ab896e353&amp;dn=WWE.Monday.Night.Raw.2011.10.24.1080p.H.264.HD.MM.By.Snaw90&amp;tr=udp%3A%2F%2Ftracker.openbittorrent.com%3A80&amp;tr=udp%3A%2F%2Fopen.demonii.com%3A1337&amp;tr=udp%3A%2F%2Ftracker.coppersurfer.tk%3A6969&amp;tr=udp%3A%2F%2Fexodus.desync.com%3A6969","seeders":0,"leechers":1,"uploader":null,"files":1,"time":1319596085,"description":"General\nComplete name            :WWE.Monday.Night.Raw.2011.10.24.1080p.H.264.HD.MM.By.Snaw90.mp4\nFormat                   : x264\nFile size                : 7.57 GiB\nDuration                 : 1h 28mn\n\n\nVideo\n\nFormat                   : AVC\nDuration                 : 1h 28mn\nBit rate                 : 12.0 Mbps\nWidth                    : 1920 pixels\nHeight                   : 1080 pixels\nDisplay aspect ratio     : 16:9\nStream size              : 7.47 GiB (99%)\n\n\nAudio\n\nFormat                   : AAC\nDuration                 : 1h 28mn\nBit rate                 : 152 Kbps\nChannel(s)               : 2 channels\nStream size              : 96.7 MiB \n\n\n","torrent":{"xt":"urn:btih:1178355f4ce36dd18ab75f5c7388e68ab896e353","amp;dn":"WWE.Monday.Night.Raw.2011.10.24.1080p.H.264.HD.MM.By.Snaw90","amp;tr":["udp%3A%2F%2Ftracker.openbittorrent.com%3A80","udp%3A%2F%2Fopen.demonii.com%3A1337","udp%3A%2F%2Ftracker.coppersurfer.tk%3A6969","udp%3A%2F%2Fexodus.desync.com%3A6969"],"infoHash":"1178355f4ce36dd18ab75f5c7388e68ab896e353","infoHashBuffer":{"type":"Buffer","data":[17,120,53,95,76,227,109,209,138,183,95,92,115,136,230,138,184,150,227,83]},"announce":[],"urlList":[]}}